<svg width="98" height="78" viewBox="0 0 98 78" fill="none" xmlns="http://www.w3.org/2000/svg">
<path d="M96.7133 19.3081L64.0547 0.96659C63.7746 0.809437 63.4604 0.727051 63.1409 0.727051C62.8215 0.727051 62.5072 0.809437 62.2271 0.96659L49.946 7.86383C49.6657 7.94423 49.4072 8.08933 49.1903 8.28796L29.5684 19.3081C29.2702 19.4756 29.0214 19.7219 28.8481 20.0213C28.6749 20.3208 28.5834 20.6623 28.5833 21.0103V24.9809H6.67659C5.6279 24.9809 4.77783 25.8509 4.77783 26.9229C4.77783 27.9955 5.6279 28.8649 6.67659 28.8649H28.5835V35.8561H17.6975C16.6489 35.8561 15.7988 36.7262 15.7988 37.7982C15.7988 38.8707 16.6489 39.7402 17.6975 39.7402H28.5835V49.8386H12.6339C11.5852 49.8386 10.7352 50.7086 10.7352 51.7806C10.7352 52.8532 11.5852 53.7226 12.6339 53.7226H28.5835V57.6938C28.5835 58.4023 28.961 59.0548 29.5686 59.396L62.2271 77.7375C62.512 77.8975 62.8264 77.9772 63.1408 77.9772C63.4553 77.9772 63.7699 77.8975 64.0547 77.7375L96.7133 59.396C97.0115 59.2285 97.2601 58.9822 97.4334 58.6827C97.6067 58.3833 97.6981 58.0418 97.6982 57.6938V48.9973C97.6982 47.9253 96.8481 47.0553 95.7994 47.0553C94.7507 47.0553 93.9007 47.9253 93.9007 48.9973V56.5446L65.0396 72.7535V40.501L74.2182 35.3464V43.5271C74.2181 43.7821 74.2671 44.0347 74.3625 44.2704C74.4579 44.506 74.5977 44.7202 74.7741 44.9005C74.9504 45.0809 75.1598 45.2239 75.3902 45.3215C75.6206 45.419 75.8675 45.4692 76.1169 45.4691C76.4314 45.4691 76.7466 45.3895 77.0321 45.2285L84.0309 41.2891C84.3286 41.1214 84.5768 40.875 84.7497 40.5757C84.9225 40.2764 85.0136 39.9351 85.0135 39.5875V29.2836L93.9007 24.2926V33.4613C93.9007 34.5338 94.7507 35.4033 95.7994 35.4033C96.8481 35.4033 97.6982 34.5338 97.6982 33.4613V21.0103C97.6982 20.3018 97.3209 19.6493 96.7133 19.3081ZM61.2421 72.7535L32.381 56.5446V24.2928L61.2421 40.5008V72.7535ZM63.1408 37.1365L34.4273 21.0103L43.4517 15.9422L72.1658 32.0684L63.1408 37.1365ZM76.111 29.8526L47.3967 13.7262L50.5097 11.9784L79.2231 28.1048L76.111 29.8526ZM81.216 38.4398L78.0157 40.2416V33.2138L81.216 31.4159V38.4398ZM83.1683 25.8888L54.4548 9.76253L63.1408 4.88479L91.8544 21.0103L83.1683 25.8888Z" fill="#888888"/>
<path d="M95.7992 39.2874C95.2958 39.2881 94.8131 39.4927 94.4568 39.8564C94.1017 40.2212 93.9018 40.7146 93.9005 41.2294C93.9005 41.7398 94.1036 42.2412 94.4568 42.6024C94.81 42.9636 95.3 43.1714 95.7992 43.1714C96.2984 43.1714 96.7885 42.9636 97.1416 42.6024C97.4963 42.2373 97.6962 41.7441 97.698 41.2294C97.698 40.7165 97.4948 40.2174 97.1416 39.8564C96.7853 39.4927 96.3026 39.2881 95.7992 39.2874ZM5.10174 49.8377H2.38044C1.33176 49.8377 0.481689 50.708 0.481689 51.7797C0.481689 52.8525 1.33176 53.7218 2.38044 53.7218H5.10174C6.15042 53.7218 7.0005 52.8525 7.0005 51.7797C7.0005 50.708 6.15042 49.8377 5.10174 49.8377ZM12.0018 37.7973C12.0018 37.2869 11.7987 36.7863 11.4447 36.4251C11.0883 36.0619 10.6062 35.8572 10.1031 35.8555C9.59969 35.857 9.11726 36.0617 8.76064 36.4251C8.40502 36.7893 8.20498 37.2828 8.20431 37.7975C8.20431 38.3086 8.4052 38.8093 8.76064 39.1705C9.1175 39.5334 9.59982 39.7378 10.1031 39.7395C10.6022 39.7395 11.0917 39.5323 11.4447 39.1705C11.8001 38.8058 12.0003 38.3123 12.0018 37.7975V37.7973Z" fill="#888888"/>
</svg>
