<svg width="84" height="90" viewBox="0 0 84 90" fill="none" xmlns="http://www.w3.org/2000/svg">
<path d="M82.7596 69.0771L68.6905 39.037C68.541 38.7254 68.2745 38.4855 67.949 38.3693C67.6235 38.2532 67.2653 38.2703 66.9523 38.4169C66.6393 38.5635 66.3969 38.8277 66.2777 39.1521C66.1585 39.4765 66.1722 39.8349 66.3159 40.1492L80.3848 70.1887C81.0141 71.5345 80.4316 73.1421 79.0864 73.7724L52.112 86.4048C50.7669 87.035 49.1597 86.4531 48.5291 85.1078L43.486 74.3365L56.6122 42.6663C56.8927 41.9872 57.0298 41.2574 57.0149 40.5227C56.9999 39.788 56.8333 39.0644 56.5254 38.3972L49.3455 22.8878L58.6523 25.8321C59.0074 25.9446 59.3353 26.1295 59.6153 26.375C59.8954 26.6206 60.1215 26.9215 60.2795 27.2588L63.7269 34.6168C63.8745 34.9317 64.141 35.175 64.468 35.2934C64.7949 35.4117 65.1555 35.3953 65.4704 35.2478C65.6263 35.1748 65.7663 35.0717 65.8824 34.9446C65.9985 34.8174 66.0884 34.6686 66.147 34.5067C66.2056 34.3448 66.2317 34.1729 66.2238 34.0009C66.216 33.8289 66.1743 33.6601 66.1012 33.5042L62.6544 26.1474C62.3424 25.4818 61.896 24.888 61.3432 24.4034C60.7904 23.9188 60.1432 23.554 59.4424 23.3319L48.2185 19.7811C50.5325 16.4008 52.9701 11.8806 53.8088 9.85699C56.0081 4.55078 54.233 1.59981 51.8386 0.607303C49.4441 -0.384859 46.1021 0.445264 43.9027 5.75148C42.9569 8.03366 42.089 13.0039 41.4718 17.2678C40.7213 17.3139 39.9822 17.4738 39.2798 17.7422L22.2986 24.2304C21.624 24.4896 21.009 24.8829 20.491 25.3867C19.9729 25.8905 19.5624 26.4942 19.2845 27.1613L1.12196 70.9844C0.578157 72.2964 0.577808 73.7415 1.12108 75.0537C1.66419 76.3659 2.68589 77.388 3.99776 77.9316L9.30992 80.1332C9.46897 80.1991 9.63945 80.2331 9.81163 80.2331C9.98381 80.2332 10.1543 80.1993 10.3134 80.1335C10.4725 80.0676 10.617 79.9711 10.7388 79.8493C10.8606 79.7276 10.9572 79.5831 11.0231 79.424C11.0891 79.265 11.123 79.0945 11.123 78.9223C11.1231 78.7502 11.0892 78.5797 11.0234 78.4206C10.9575 78.2615 10.861 78.1169 10.7393 77.9952C10.6175 77.8734 10.473 77.7768 10.314 77.7108L5.00181 75.5091C4.33705 75.2336 3.81911 74.7157 3.54381 74.0505C3.2685 73.3854 3.26867 72.6532 3.54433 71.9883L21.7074 28.1646C21.8482 27.8265 22.0563 27.5206 22.3188 27.2652C22.5814 27.0099 22.8931 26.8105 23.235 26.6792L40.2162 20.191C40.5032 20.0813 40.8 19.9993 41.1026 19.9461C40.9661 20.9837 40.8366 22.0223 40.714 23.0617C40.1505 23.0942 39.5985 23.2342 39.0875 23.474C38.016 23.9757 37.2041 24.8648 36.8013 25.9772C36.3984 27.0898 36.453 28.2924 36.9546 29.3639C37.7068 30.9703 39.3062 31.9146 40.9729 31.9146C41.601 31.9146 42.239 31.7803 42.8445 31.4968C43.916 30.9951 44.728 30.1059 45.1309 28.9937C45.5336 27.8811 45.4792 26.6785 44.9776 25.607C44.6039 24.8092 44.0151 24.1558 43.2796 23.7074C43.3771 22.8726 43.5259 21.6415 43.7146 20.2083C44.8494 20.6505 45.8196 21.5124 46.365 22.6908L54.1456 39.4983C54.3017 39.8364 54.3862 40.2032 54.3937 40.5755C54.4013 40.9479 54.3317 41.3177 54.1895 41.6619L36.0387 85.456C35.9041 85.7834 35.7058 86.0809 35.4555 86.3311C35.2051 86.5814 34.9076 86.7795 34.5802 86.914C34.2535 87.0504 33.903 87.1205 33.549 87.1205C33.195 87.1204 32.8445 87.0501 32.5179 86.9137L16.2967 80.1907C15.9762 80.0616 15.6177 80.0642 15.2992 80.1979C14.9806 80.3317 14.7277 80.5857 14.5954 80.9049C14.4632 81.224 14.4622 81.5825 14.5927 81.9023C14.7233 82.2222 14.9748 82.4776 15.2926 82.6131L31.5138 89.3361C32.1568 89.6033 32.8462 89.7409 33.5425 89.7411C35.6295 89.7411 37.6136 88.5047 38.4609 86.4599L42.1262 77.6166L46.1543 86.2199C47.0575 88.1476 48.9773 89.281 50.9772 89.281C51.7313 89.281 52.4973 89.1198 53.2241 88.7791L80.1984 76.1469C82.8524 74.9034 84.0014 71.7324 82.7596 69.0771ZM42.6653 28.1008C42.5851 28.3243 42.4613 28.5296 42.3012 28.7049C42.141 28.8803 41.9477 29.0221 41.7324 29.1222C40.8301 29.5448 39.7519 29.1543 39.3293 28.252C39.228 28.0373 39.1703 27.8046 39.1596 27.5674C39.1489 27.3302 39.1853 27.0933 39.2667 26.8702C39.3469 26.6468 39.4707 26.4415 39.6308 26.2662C39.7909 26.0908 39.9842 25.949 40.1994 25.8489C40.4388 25.7362 40.7001 25.6776 40.9647 25.6774C41.1722 25.6774 41.3802 25.7136 41.581 25.7863C41.8045 25.8665 42.0098 25.9903 42.1851 26.1504C42.3604 26.3105 42.5023 26.5038 42.6024 26.719C42.7038 26.9337 42.7616 27.1664 42.7724 27.4036C42.7832 27.6408 42.7468 27.8778 42.6653 28.1008ZM45.9689 18.4262C45.3814 18.054 44.7455 17.7646 44.0791 17.566C44.6703 13.4745 45.4812 8.79351 46.3258 6.75518C46.9206 5.31955 48.551 2.08331 50.8351 3.0295C53.119 3.97621 51.982 7.41732 51.3868 8.85277C50.5806 10.7979 48.2035 15.1938 45.9689 18.4262Z" fill="#888888"/>
<path d="M24.2301 44.4503C27.0706 42.9385 30.3299 42.623 33.4078 43.5629C38.5165 45.1224 41.9455 49.7553 41.9406 55.0912C41.9404 55.2634 41.9742 55.434 42.0399 55.5931C42.1057 55.7522 42.2021 55.8969 42.3238 56.0187C42.4454 56.1406 42.5899 56.2373 42.7489 56.3034C42.9079 56.3694 43.0784 56.4035 43.2506 56.4036H43.2518C43.5993 56.4036 43.9326 56.2656 44.1784 56.02C44.4243 55.7744 44.5626 55.4412 44.563 55.0937C44.5657 52.015 43.5643 48.9422 41.7433 46.4411C39.8594 43.8543 37.2418 41.9916 34.1732 41.0547C26.4368 38.6931 18.2217 43.0656 15.8603 50.8017C14.7163 54.5494 15.1001 58.518 16.9413 61.9769C18.7823 65.4359 21.8598 67.9708 25.6073 69.1149C26.9963 69.539 28.4405 69.7546 29.8927 69.7546C31.9574 69.7548 33.9987 69.3185 35.8829 68.4744C39.0847 67.04 41.6674 64.5107 43.1553 61.3522C43.2287 61.1965 43.2707 61.0278 43.2789 60.8558C43.2871 60.6838 43.2613 60.5119 43.2031 60.3499C43.1449 60.1879 43.0553 60.0389 42.9395 59.9115C42.8236 59.7841 42.6839 59.6807 42.5281 59.6074C42.3724 59.534 42.2037 59.492 42.0317 59.4838C41.8597 59.4756 41.6878 59.5013 41.5258 59.5596C41.3638 59.6178 41.2148 59.7074 41.0874 59.8232C40.96 59.939 40.8566 60.0788 40.7833 60.2345C38.2543 65.6032 32.0597 68.343 26.3733 66.6067C23.2956 65.6673 20.7682 63.5855 19.2562 60.745C17.7443 57.9045 17.429 54.645 18.3687 51.5673C19.3077 48.4898 21.3898 45.9622 24.2301 44.4503Z" fill="#888888"/>
<path d="M34.9327 51.5159C34.7792 51.2253 34.5695 50.9681 34.3159 50.7592C34.0622 50.5503 33.7696 50.3938 33.455 50.2988L32.8594 50.117L33.2641 48.7913C33.361 48.4601 33.3235 48.104 33.1596 47.8003C32.9957 47.4966 32.7187 47.2698 32.3887 47.169C32.0586 47.0682 31.7021 47.1016 31.3965 47.2619C31.0909 47.4223 30.8609 47.6966 30.7563 48.0255L30.3425 49.3813C28.5957 49.0797 26.8512 50.1173 26.3207 51.8559C26.1825 52.3044 26.1345 52.7758 26.1797 53.243C26.2249 53.7101 26.3623 54.1637 26.584 54.5773C26.8033 54.9922 27.1028 55.3595 27.465 55.6578C27.8273 55.9562 28.2451 56.1797 28.6943 56.3155L30.3448 56.8193C30.4643 56.8554 30.5754 56.9149 30.6718 56.9942C30.7681 57.0736 30.8477 57.1713 30.9061 57.2817C30.965 57.3917 31.0015 57.5123 31.0135 57.6366C31.0255 57.7608 31.0128 57.8862 30.976 58.0055C30.9399 58.125 30.8804 58.2361 30.801 58.3324C30.7217 58.4287 30.624 58.5083 30.5136 58.5666C30.4037 58.6256 30.283 58.6622 30.1588 58.6742C30.0346 58.6862 29.9092 58.6734 29.79 58.6365L28.9649 58.3846L27.2257 57.8538C27.293 57.5238 27.2309 57.1806 27.0521 56.8953C26.8733 56.6099 26.5916 56.4042 26.2654 56.3209C25.9391 56.2375 25.5933 56.2829 25.2995 56.4476C25.0058 56.6123 24.7867 56.8836 24.6876 57.2055C24.285 58.5245 25.0304 59.9252 26.3496 60.3281L26.9453 60.5099L26.5406 61.8355C26.4443 62.1666 26.4823 62.5222 26.6462 62.8254C26.8102 63.1287 27.087 63.3552 27.4168 63.4558C27.7465 63.5565 28.1026 63.5233 28.408 63.3633C28.7134 63.2033 28.9435 62.9295 29.0485 62.6012L29.4619 61.2468C29.6646 61.2821 29.8685 61.3019 30.0719 61.3019C30.6493 61.3019 31.2217 61.1603 31.7458 60.8813C32.1607 60.662 32.5279 60.3625 32.8263 60.0002C33.1247 59.638 33.3482 59.2202 33.484 58.771C34.0591 56.887 32.9944 54.8864 31.1104 54.3113L29.4599 53.8075C29.3405 53.7714 29.2294 53.7119 29.1331 53.6326C29.0368 53.5532 28.9571 53.4555 28.8988 53.3452C28.8399 53.2352 28.8033 53.1145 28.7913 52.9903C28.7793 52.866 28.7921 52.7406 28.8289 52.6213C28.9027 52.3804 29.069 52.1786 29.2914 52.0603C29.5138 51.9419 29.7741 51.9167 30.0151 51.9901L30.8396 52.2418L30.8402 52.242H30.8405L32.5792 52.7729C32.511 53.1032 32.5726 53.447 32.7513 53.7331C32.93 54.0191 33.2121 54.2252 33.5388 54.3087C33.8656 54.3921 34.212 54.3464 34.5059 54.1811C34.7999 54.0158 35.0189 53.7436 35.1173 53.421C35.214 53.1071 35.2475 52.777 35.2158 52.45C35.1842 52.123 35.0879 51.8055 34.9327 51.5159ZM74.0763 69.0084L65.6852 51.1773C65.5343 50.8674 65.2674 50.6294 64.9423 50.5148C64.6172 50.4001 64.26 50.4182 63.9481 50.565C63.6362 50.7117 63.3946 50.9754 63.2757 51.299C63.1568 51.6225 63.1701 51.9799 63.3127 52.2938L71.7037 70.1249C71.8097 70.3502 71.9777 70.5406 72.1879 70.674C72.3981 70.8074 72.642 70.8782 72.891 70.8781C73.1118 70.8779 73.3289 70.822 73.5224 70.7155C73.7158 70.6091 73.8792 70.4555 73.9974 70.269C74.1156 70.0825 74.1848 69.8692 74.1986 69.6488C74.2124 69.4285 74.1703 69.2082 74.0763 69.0084ZM68.2142 72.1435L59.8231 54.3123C59.6751 53.9977 59.4081 53.7548 59.081 53.637C58.7538 53.5192 58.3933 53.5362 58.0786 53.6843C57.764 53.8323 57.5211 54.0993 57.4033 54.4265C57.2855 54.7536 57.3025 55.1142 57.4506 55.4288L65.8417 73.2599C65.9476 73.4852 66.1155 73.6757 66.3258 73.8091C66.536 73.9425 66.7799 74.0133 67.0289 74.0131C67.2497 74.013 67.4669 73.957 67.6603 73.8506C67.8537 73.7441 68.0171 73.5905 68.1353 73.404C68.2535 73.2175 68.3227 73.0042 68.3365 72.7839C68.3503 72.5635 68.3083 72.3432 68.2142 72.1435Z" fill="#888888"/>
</svg>
