<svg width="83" height="81" viewBox="0 0 83 81" fill="none" xmlns="http://www.w3.org/2000/svg">
<path d="M70.5441 26.6077H1.58859C1.43357 26.6076 1.28003 26.6379 1.13674 26.6971C0.993447 26.7562 0.863211 26.843 0.753466 26.9525C0.643721 27.062 0.556616 27.192 0.497125 27.3352C0.437633 27.4783 0.40692 27.6318 0.406739 27.7868V60.8869C0.406558 61.0419 0.436912 61.1955 0.496069 61.3387C0.555226 61.482 0.642027 61.6123 0.751516 61.722C0.861004 61.8318 0.991037 61.9189 1.13419 61.9784C1.27734 62.0378 1.43081 62.0686 1.58583 62.0687H48.4764C48.7864 62.0634 49.0819 61.9366 49.2992 61.7155C49.5165 61.4945 49.6383 61.1969 49.6383 60.8869C49.6383 60.5769 49.5165 60.2793 49.2992 60.0582C49.0819 59.8372 48.7864 59.7103 48.4764 59.705H2.77044V28.9714H69.3595V31.9267C69.3593 32.0818 69.3896 32.2353 69.4488 32.3786C69.508 32.5219 69.5947 32.6521 69.7042 32.7619C69.8137 32.8716 69.9438 32.9587 70.0869 33.0182C70.2301 33.0777 70.3835 33.1084 70.5386 33.1086H70.5413C70.6963 33.1088 70.8499 33.0784 70.9932 33.0193C71.1365 32.9601 71.2667 32.8733 71.3764 32.7638C71.4862 32.6543 71.5733 32.5243 71.6328 32.3811C71.6923 32.238 71.723 32.0845 71.7232 31.9295V27.7896C71.7235 27.4765 71.5994 27.1761 71.3783 26.9545C71.1572 26.7329 70.8571 26.6081 70.5441 26.6077ZM62.5262 21.1205L7.36407 8.70899C7.05793 8.64053 6.73714 8.69606 6.47182 8.86344C6.20687 9.03218 6.01947 9.29891 5.95054 9.60537L3.19243 22.0169C3.12922 22.3212 3.18835 22.6381 3.35701 22.8991C3.52568 23.1602 3.79034 23.3443 4.09372 23.4117C4.39711 23.4792 4.71485 23.4244 4.9782 23.2594C5.24155 23.0944 5.42935 22.8323 5.50097 22.5299L8.00119 11.2754L62.0077 23.4263C62.3103 23.4867 62.6246 23.4264 62.8833 23.2583C63.1421 23.0902 63.3248 22.8275 63.3925 22.5265C63.4602 22.2254 63.4075 21.9098 63.2457 21.6471C63.0838 21.3844 62.8256 21.1954 62.5262 21.1205ZM55.8282 14.2817L22.7309 0.491201C22.4536 0.375622 22.1428 0.369566 21.8612 0.474257C21.5797 0.578947 21.3483 0.786584 21.2139 1.05523L18.4558 6.57145C18.38 6.71133 18.3331 6.86502 18.318 7.02339C18.3028 7.18176 18.3196 7.34156 18.3675 7.49328C18.4154 7.645 18.4933 7.78555 18.5966 7.90654C18.6998 8.02754 18.8264 8.12651 18.9688 8.19758C19.1111 8.26864 19.2663 8.31035 19.4251 8.3202C19.5839 8.33005 19.743 8.30786 19.893 8.25494C20.0431 8.20202 20.1809 8.11946 20.2984 8.01216C20.4159 7.90487 20.5105 7.77503 20.5768 7.63039V7.63315L22.8398 3.10434L54.9152 16.4688C55.2053 16.5898 55.5315 16.5907 55.8222 16.4712C56.1128 16.3518 56.3442 16.1217 56.4652 15.8317C56.5863 15.5417 56.5872 15.2155 56.4677 14.9248C56.3482 14.6341 56.1182 14.4028 55.8282 14.2817Z" fill="#888888"/>
<path d="M56.6642 32.125H45.7187C45.4087 32.1303 45.1132 32.2571 44.8959 32.4782C44.6786 32.6993 44.5568 32.9969 44.5568 33.3069C44.5568 33.6168 44.6786 33.9144 44.8959 34.1355C45.1132 34.3566 45.4087 34.4834 45.7187 34.4887H56.6642C56.9742 34.4834 57.2696 34.3566 57.4869 34.1355C57.7043 33.9144 57.826 33.6168 57.826 33.3069C57.826 32.9969 57.7043 32.6993 57.4869 32.4782C57.2696 32.2571 56.9742 32.1303 56.6642 32.125ZM34.6862 32.2036C27.9838 32.2036 22.5505 37.6369 22.5505 44.3393C22.5574 51.0387 27.9868 56.4681 34.6862 56.475C41.3886 56.475 46.8219 51.0417 46.8219 44.3393C46.8219 37.6369 41.3886 32.2036 34.6862 32.2036ZM34.6862 54.2685C29.2024 54.2685 24.757 49.8231 24.757 44.3393C24.7631 38.8581 29.205 34.4161 34.6862 34.4101C40.17 34.4101 44.6154 38.8555 44.6154 44.3393C44.6154 49.8231 40.17 54.2685 34.6862 54.2685ZM67.7835 36.065C60.4745 36.065 52.6139 37.7915 52.6139 41.5812V74.6785C52.6139 78.4681 60.4745 80.1947 67.7835 80.1947C75.0925 80.1947 82.9531 78.4681 82.9531 74.6785V41.5812C82.9531 37.7915 75.0925 36.065 67.7835 36.065ZM80.195 74.6578C79.9868 75.4232 75.851 77.4366 67.7835 77.4366C59.7161 77.4366 55.5803 75.4232 55.372 74.6785V72.5106C58.3067 73.989 63.154 74.6785 67.7835 74.6785C72.413 74.6785 77.2618 73.9821 80.195 72.5092V74.6578ZM80.195 69.1416C79.9868 69.907 75.851 71.9204 67.7835 71.9204C59.7161 71.9204 55.5803 69.907 55.372 69.1623V66.9944C58.3067 68.4727 63.154 69.1623 67.7835 69.1623C72.413 69.1623 77.2618 68.4658 80.195 66.993V69.1416ZM80.195 63.6254C79.9868 64.3907 75.851 66.4042 67.7835 66.4042C59.7161 66.4042 55.5803 64.3907 55.372 63.646V61.4782C58.3067 62.9565 63.154 63.646 67.7835 63.646C72.413 63.646 77.2618 62.9496 80.195 61.4768V63.6254ZM80.195 58.1091C79.9868 58.8745 75.851 60.8879 67.7835 60.8879C59.7161 60.8879 55.5803 58.8745 55.372 58.1298V55.962C58.3067 57.4403 63.154 58.1298 67.7835 58.1298C72.413 58.1298 77.2618 57.4334 80.195 55.9606V58.1091ZM80.195 52.5929C79.9868 53.3583 75.851 55.3717 67.7835 55.3717C59.7161 55.3717 55.5803 53.3583 55.372 52.6136V50.4457C58.3067 51.9172 63.154 52.6136 67.7835 52.6136C72.413 52.6136 77.2618 51.9172 80.195 50.4444V52.5929ZM80.195 47.0767C79.9868 47.8421 75.851 49.8555 67.7835 49.8555C59.7161 49.8555 55.5803 47.8421 55.372 47.0974V44.9295C58.3067 46.401 63.154 47.0974 67.7835 47.0974C72.413 47.0974 77.2618 46.401 80.195 44.9281V47.0767ZM67.7835 44.3393C59.7285 44.3393 55.5941 42.3314 55.372 41.606V41.5977C55.5941 40.8296 59.7285 38.8231 67.7835 38.8231C75.782 38.8231 79.9192 40.8006 80.195 41.5812C79.9192 42.3617 75.782 44.3393 67.7835 44.3393Z" fill="#888888"/>
<path d="M23.6535 54.1885H13.2292L8.28671 48.7826V39.8187L13.745 34.4887H23.6535C23.9635 34.4834 24.2589 34.3566 24.4762 34.1355C24.6936 33.9144 24.8154 33.6168 24.8154 33.3069C24.8154 32.9969 24.6936 32.6993 24.4762 32.4782C24.2589 32.2571 23.9635 32.1303 23.6535 32.125H13.2651C12.9561 32.1244 12.6591 32.2446 12.4377 32.4601L6.27743 38.4687C6.04732 38.7376 5.9211 39.08 5.92163 39.434V49.2418C5.9216 49.5367 6.03178 49.821 6.23054 50.0389L11.8336 56.1674C11.9444 56.2887 12.0793 56.3856 12.2296 56.4518C12.3799 56.5181 12.5423 56.5523 12.7066 56.5522H23.6535C23.9635 56.5469 24.2589 56.4201 24.4762 56.199C24.6936 55.9779 24.8154 55.6803 24.8154 55.3703C24.8154 55.0603 24.6936 54.7628 24.4762 54.5417C24.2589 54.3206 23.9635 54.1938 23.6535 54.1885ZM35.3755 42.9602H33.9964C33.5675 42.9602 33.3069 42.7203 33.3069 42.6155C33.3069 42.5107 33.5675 42.2707 33.9964 42.2707H37.4441C37.8098 42.2707 38.1606 42.1254 38.4192 41.8668C38.6778 41.6082 38.8231 41.2574 38.8231 40.8917C38.8231 40.5259 38.6778 40.1751 38.4192 39.9165C38.1606 39.6579 37.8098 39.5126 37.4441 39.5126H36.065C36.065 39.1468 35.9197 38.7961 35.6611 38.5375C35.4025 38.2788 35.0517 38.1335 34.686 38.1335C34.3202 38.1335 33.9694 38.2788 33.7108 38.5375C33.4522 38.7961 33.3069 39.1468 33.3069 39.5126V39.5747C32.5655 39.6794 31.8841 40.0399 31.3804 40.594C30.8768 41.148 30.5826 41.8606 30.5488 42.6086C30.6476 44.4167 32.1876 45.8059 33.9964 45.7183H35.3755C35.8044 45.7183 36.065 45.9583 36.065 46.0631C36.065 46.1679 35.8044 46.4079 35.3755 46.4079H31.9278C31.5621 46.4079 31.2113 46.5532 30.9527 46.8118C30.6941 47.0704 30.5488 47.4212 30.5488 47.7869C30.5488 48.1527 30.6941 48.5034 30.9527 48.7621C31.2113 49.0207 31.5621 49.166 31.9278 49.166H33.3069C33.3069 49.5317 33.4522 49.8825 33.7108 50.1411C33.9694 50.3997 34.3202 50.545 34.686 50.545C35.0517 50.545 35.4025 50.3997 35.6611 50.1411C35.9197 49.8825 36.065 49.5317 36.065 49.166V49.1039C36.8064 48.9992 37.4878 48.6386 37.9915 48.0846C38.4951 47.5306 38.7893 46.818 38.8231 46.07C38.7243 44.2619 37.1843 42.8727 35.3755 42.9602Z" fill="#888888"/>
</svg>
