<svg width="88" height="84" viewBox="0 0 88 84" fill="none" xmlns="http://www.w3.org/2000/svg">
<path d="M87.2667 29.9001H77.3248L80.157 23.1186L71.8856 21.2L72.6764 12.4746L64.2363 13.2921L62.3804 4.74097L54.5979 8.21509L50.2766 0.675293L43.9134 6.46565L37.55 0.675644L33.229 8.21526L25.4464 4.74115L23.5905 13.2922L15.1505 12.4747L15.9412 21.2001L7.66979 23.1188L10.502 29.9002H0.560303V54.5201H10.5024L7.66996 61.3015L15.9414 63.2202L15.1506 71.9456L23.5907 71.1279L25.4466 79.679L29.6758 77.7912L28.6663 75.3739L27.2588 76.0019L25.585 68.2901L17.9732 69.0276L18.6864 61.1583L11.2267 59.428L13.2766 54.5201H22.1766C31.2559 71.8769 56.3108 71.8718 65.3864 54.5201H74.5501L76.5999 59.428L69.1403 61.1583L69.8535 69.0276L62.2417 68.2901L60.5678 76.0019L53.549 72.8691L49.652 79.6686L43.9132 74.4467L38.1744 79.6686L34.2773 72.8691L31.0812 74.2957L32.0908 76.7131L33.2288 76.2049L37.5499 83.7443L43.9132 77.9543L50.2765 83.7443L54.5975 76.2049L62.3801 79.6788L64.236 71.1277L72.676 71.9454L71.8853 63.22L80.1567 61.3014L77.3243 54.5197H87.2664L87.2667 29.9001ZM11.2267 24.9923L18.6864 23.262L17.9732 15.3927L25.585 16.13L27.2588 8.41819L34.2777 11.5512L38.1747 4.75151L43.9136 9.97347L49.6523 4.75151L53.5494 11.5512L60.5682 8.41819L62.2421 16.13L69.8538 15.3927L69.1406 23.262L76.6003 24.9923L74.5505 29.9001H65.5606C59.331 17.5793 43.6781 12.7709 31.9485 19.5762L33.1685 21.8877C43.1863 16.055 56.6796 19.7275 62.6137 29.9002H24.9486C26.5462 27.2615 28.6428 24.9835 31.1126 23.2027L29.6569 21.042C26.4726 23.3378 23.8514 26.3712 22.0024 29.9002H13.2766L11.2267 24.9923ZM84.7197 51.8868H53.3091V54.5199H62.4144C54.0362 68.389 33.5246 68.3851 25.1491 54.5199H50.7056V51.8868H3.10729V32.5332H84.7197V51.8868Z" fill="#888888"/>
<path d="M82.2709 45.8738H78.4255V35.3422H75.8785V48.5069H82.2709V45.8738ZM66.7606 46.2929H70.9005L71.7432 48.8959L74.1586 48.0604L69.98 35.1527L67.711 35.1554L63.4959 48.0569L65.9089 48.8996L66.7606 46.2929ZM68.8401 39.9281L70.0482 43.6598H67.621L68.8401 39.9281ZM54.4072 40.4038L59.3392 48.5185H61.775V35.3597H59.228V43.3863L54.2956 35.2716H51.8602V48.3806H54.4072V40.4038ZM29.5965 35.3952H32.1435V48.3807H29.5965V35.3952ZM39.5858 48.3881C42.8058 48.3881 45.0547 45.7806 45.0547 42.0471V40.7305H39.4128V43.3636H42.3504C41.4339 47.4002 35.9624 45.8858 35.9989 42.0471C35.9618 39.1221 39.2693 37.3052 41.5899 38.9718L43.0157 36.7898C39.0448 33.937 33.3891 37.043 33.452 42.0473C33.4521 45.5435 36.2037 48.3881 39.5858 48.3881ZM47.1052 35.3952H49.6521V48.3807H47.1052V35.3952ZM19.792 48.3806H22.3389V44.2276L25.7113 48.6779L27.7163 47.0542L24.8479 43.2692C29.5372 41.9976 28.7207 35.2542 23.8451 35.145H19.7911L19.792 48.3806ZM23.8451 37.7779C25.9558 37.8755 25.9546 40.6619 23.8451 40.7588C23.4975 40.7588 22.9032 40.7614 22.3544 40.7641C22.3517 40.2104 22.3478 38.3581 22.3462 37.7778L23.8451 37.7779ZM11.9941 48.5786C15.5767 48.5786 18.4913 45.5654 18.4913 41.8617C18.1648 32.9629 5.82224 32.9653 5.49707 41.8617C5.4969 45.5654 8.4115 48.5786 11.9941 48.5786ZM11.9941 37.7779C14.1723 37.7779 15.9443 39.6101 15.9443 41.8619C15.7456 47.272 8.24187 47.2706 8.04406 41.8619C8.04389 39.6099 9.81591 37.7779 11.9941 37.7779Z" fill="#888888"/>
</svg>
