<svg width="80" height="95" viewBox="0 0 80 95" fill="none" xmlns="http://www.w3.org/2000/svg">
<path d="M79.2887 42.5195C78.1019 32.7917 73.5613 23.8326 66.5003 17.2866C59.4393 10.7407 50.3315 7.04687 40.8486 6.8832L43.5514 4.11167C43.747 3.91392 43.9029 3.67812 44.0099 3.41784C44.117 3.15756 44.1732 2.87795 44.1753 2.59512C44.1774 2.31229 44.1254 2.03182 44.0222 1.76988C43.9189 1.50794 43.7666 1.26969 43.574 1.06887C43.3813 0.868043 43.1521 0.708608 42.8996 0.599747C42.6471 0.490886 42.3763 0.434749 42.1027 0.434571C41.8291 0.434392 41.5582 0.490176 41.3055 0.598708C41.0529 0.70724 40.8235 0.866376 40.6306 1.06695L34.0607 7.8039C33.8673 8.00213 33.7135 8.23783 33.6082 8.49751C33.5029 8.75719 33.4482 9.03578 33.4471 9.31735C33.4459 9.59892 33.4985 9.87796 33.6017 10.1385C33.7049 10.3991 33.8568 10.6361 34.0486 10.836L40.6184 17.6839C40.8096 17.8861 41.0377 18.0472 41.2895 18.1579C41.5413 18.2686 41.8117 18.3267 42.0853 18.3288C42.3589 18.331 42.6302 18.2772 42.8836 18.1705C43.1369 18.0638 43.3674 17.9063 43.5616 17.7072C43.7559 17.508 43.9101 17.2711 44.0154 17.01C44.1207 16.749 44.175 16.469 44.1752 16.1861C44.1754 15.9033 44.1214 15.6232 44.0164 15.362C43.9114 15.1008 43.7575 14.8637 43.5635 14.6643L40.2135 11.1717C47.5172 11.1769 54.6391 13.5267 60.5955 17.8964C66.5519 22.2662 71.0487 28.4402 73.465 35.5656C75.8813 42.6911 76.0976 50.4165 74.0843 57.6746C72.0709 64.9326 67.9271 71.3653 62.2253 76.084C61.7961 76.4397 61.5211 76.9572 61.4609 77.5225C61.4311 77.8024 61.4549 78.0856 61.531 78.356C61.6071 78.6264 61.7339 78.8787 61.9043 79.0984C62.0746 79.3181 62.2852 79.501 62.524 79.6366C62.7627 79.7722 63.0249 79.8578 63.2957 79.8886C63.8425 79.9509 64.3908 79.786 64.8201 79.4303C75.6084 70.4865 81.0176 56.6881 79.2887 42.5195ZM39.7698 77.5537C39.5785 77.3515 39.3504 77.1904 39.0986 77.0797C38.8469 76.969 38.5764 76.9109 38.3028 76.9088C38.0292 76.9066 37.7579 76.9604 37.5046 77.0671C37.2512 77.1738 37.0207 77.3313 36.8265 77.5304C36.6322 77.7296 36.478 77.9665 36.3727 78.2276C36.2674 78.4886 36.2131 78.7686 36.2129 79.0515C36.2127 79.3343 36.2667 79.6144 36.3717 79.8756C36.4767 80.1368 36.6306 80.3739 36.8246 80.5733L40.1746 84.0647C32.8717 84.0598 25.7504 81.7108 19.7942 77.3421C13.8381 72.9734 9.34107 66.8006 6.9242 59.6762C4.50732 52.5518 4.28987 44.8273 6.30189 37.5696C8.3139 30.3119 12.4561 23.8792 18.1564 19.1598C18.5855 18.8038 18.8602 18.2862 18.9202 17.7208C18.9801 17.1554 18.8203 16.5885 18.476 16.1449C18.1316 15.7013 17.6309 15.4173 17.084 15.3553C16.5371 15.2934 15.9888 15.4586 15.5597 15.8145C4.77663 24.7591 -0.629492 38.5549 1.09937 52.7179C2.28584 62.446 6.82652 71.4053 13.8879 77.9512C20.9493 84.4971 30.0575 88.1903 39.5407 88.353L36.8367 91.1261C36.6411 91.3239 36.4852 91.5597 36.3782 91.8199C36.2711 92.0802 36.2149 92.3598 36.2128 92.6427C36.2107 92.9255 36.2628 93.206 36.366 93.4679C36.4692 93.7299 36.6215 93.9681 36.8141 94.1689C37.0068 94.3697 37.236 94.5292 37.4885 94.638C37.741 94.7469 38.0119 94.803 38.2854 94.8032C38.559 94.8034 38.8299 94.7476 39.0826 94.6391C39.3352 94.5305 39.5646 94.3714 39.7575 94.1708L46.3272 87.4333C46.5207 87.2351 46.6744 86.9994 46.7797 86.7397C46.885 86.48 46.9398 86.2015 46.941 85.9199C46.9421 85.6383 46.8896 85.3593 46.7864 85.0987C46.6832 84.8381 46.5313 84.6011 46.3395 84.4012L39.7698 77.5537Z" fill="#888888"/>
<path d="M41.8408 45.9239C41.5461 45.8071 41.2697 45.6993 41.0317 45.591C40.7704 45.4716 40.4575 45.3476 40.1122 45.2121C38.1482 44.4409 37.083 43.8316 37.083 42.8229C37.083 42.3774 37.5429 41.6859 38.4208 41.2261C39.0431 40.9011 41.289 40.0105 44.1511 42.1852C44.3704 42.3541 44.6199 42.4765 44.8851 42.5453C45.1503 42.6142 45.4261 42.6281 45.6966 42.5863C45.967 42.5445 46.2268 42.4479 46.461 42.3019C46.6952 42.1559 46.8991 41.9635 47.0611 41.7357C47.2231 41.5079 47.3399 41.2493 47.4048 40.9747C47.4697 40.7 47.4815 40.4148 47.4393 40.1355C47.3972 39.8562 47.3021 39.5882 47.1594 39.347C47.0167 39.1059 46.8293 38.8962 46.608 38.7302C45.3198 37.7372 43.8395 37.0431 42.2682 36.6952V34.7539C42.263 34.1889 42.0421 33.6488 41.6537 33.2511C41.2653 32.8534 40.7408 32.6304 40.1941 32.6304C39.6475 32.6304 39.123 32.8534 38.7346 33.2511C38.3462 33.6488 38.1253 34.1889 38.12 34.7539V36.7962C37.5778 36.9418 37.0512 37.1439 36.5483 37.3992C34.3191 38.5652 32.9348 40.6434 32.9348 42.8227C32.9348 46.9815 36.7875 48.4944 38.6398 49.2215C38.9081 49.3262 39.1533 49.4215 39.3569 49.5146C39.6537 49.6497 39.9949 49.7858 40.3605 49.9303C42.3972 50.7344 43.3056 51.2653 43.3056 52.2823C43.3056 52.7274 42.8458 53.4193 41.9678 53.878C41.3456 54.2027 39.1006 55.0946 36.2376 52.919C35.7944 52.5821 35.2399 52.4411 34.6961 52.527C34.1523 52.6128 33.6638 52.9184 33.338 53.3766C33.0122 53.8348 32.8758 54.408 32.9588 54.9702C33.0418 55.5323 33.3375 56.0373 33.7807 56.3742C35.0682 57.3714 36.5483 58.0704 38.1204 58.4234V60.4851C38.1257 61.0502 38.3466 61.5903 38.735 61.988C39.1234 62.3856 39.6479 62.6087 40.1945 62.6087C40.7412 62.6087 41.2657 62.3856 41.6541 61.988C42.0425 61.5903 42.2633 61.0502 42.2686 60.4851V58.3171C42.8112 58.1685 43.3378 57.9635 43.8404 57.7052C46.0696 56.5392 47.4539 54.4616 47.4539 52.2827C47.4535 48.141 43.8025 46.6986 41.8408 45.9239Z" fill="#888888"/>
<path d="M40.1944 24.0312C35.6819 24.0313 31.2708 25.4146 27.5188 28.0064C23.7668 30.5981 20.8425 34.2819 19.1156 38.5918C17.3888 42.9017 16.937 47.6443 17.8173 52.2197C18.6976 56.7951 20.8706 60.9978 24.0614 64.2965C27.2522 67.5952 31.3175 69.8416 35.7433 70.7517C40.1691 71.6618 44.7565 71.1947 48.9255 69.4095C53.0945 67.6243 56.6578 64.6011 59.1648 60.7223C61.6718 56.8434 63.0099 52.2831 63.0099 47.6181C63.003 41.3647 60.597 35.3694 56.3198 30.9475C52.0426 26.5256 46.2433 24.0383 40.1944 24.0312ZM40.1944 66.9165C36.5024 66.9165 32.8932 65.7847 29.8234 63.6641C26.7536 61.5436 24.361 58.5296 22.9481 55.0033C21.5352 51.477 21.1655 47.5967 21.8858 43.8532C22.6061 40.1097 24.384 36.671 26.9946 33.9721C29.6053 31.2732 32.9315 29.4352 36.5526 28.6905C40.1737 27.9459 43.927 28.3281 47.338 29.7887C50.749 31.2494 53.6645 33.7229 55.7156 36.8965C57.7668 40.0701 58.8616 43.8012 58.8616 47.6181C58.8559 52.7345 56.8873 57.6397 53.3878 61.2575C49.8882 64.8754 45.1435 66.9105 40.1944 66.9165Z" fill="#888888"/>
</svg>
