<svg width="80" height="96" viewBox="0 0 80 96" fill="none" xmlns="http://www.w3.org/2000/svg">
<path d="M79.0671 42.8232C77.8802 33.0954 73.3396 24.1363 66.2786 17.5904C59.2176 11.0444 50.1098 7.35058 40.6269 7.18691L43.3298 4.41538C43.5254 4.21763 43.6812 3.98183 43.7883 3.72155C43.8953 3.46127 43.9515 3.18166 43.9536 2.89883C43.9557 2.616 43.9037 2.33553 43.8005 2.07359C43.6973 1.81165 43.545 1.5734 43.3523 1.37258C43.1596 1.17175 42.9305 1.01232 42.6779 0.903458C42.4254 0.794597 42.1546 0.73846 41.881 0.738282C41.6074 0.738103 41.3365 0.793887 41.0838 0.902419C40.8312 1.01095 40.6018 1.17009 40.4089 1.37066L33.839 8.10761C33.6456 8.30585 33.4918 8.54154 33.3866 8.80122C33.2813 9.0609 33.2265 9.33949 33.2254 9.62106C33.2243 9.90263 33.2768 10.1817 33.38 10.4422C33.4832 10.7028 33.6351 10.9398 33.827 11.1397L40.3967 17.9876C40.588 18.1898 40.816 18.3509 41.0678 18.4616C41.3196 18.5723 41.59 18.6304 41.8636 18.6325C42.1372 18.6347 42.4085 18.5809 42.6619 18.4742C42.9153 18.3675 43.1457 18.21 43.34 18.0109C43.5342 17.8117 43.6884 17.5748 43.7937 17.3137C43.899 17.0527 43.9533 16.7727 43.9535 16.4898C43.9537 16.207 43.8997 15.9269 43.7947 15.6657C43.6898 15.4045 43.5358 15.1674 43.3418 14.968L39.9918 11.4754C47.2955 11.4807 54.4174 13.8304 60.3738 18.2002C66.3302 22.5699 70.8271 28.7439 73.2433 35.8694C75.6596 42.9948 75.876 50.7202 73.8626 57.9783C71.8492 65.2364 67.7054 71.669 62.0036 76.3877C61.5744 76.7435 61.2994 77.2609 61.2392 77.8262C61.2094 78.1061 61.2332 78.3893 61.3093 78.6597C61.3854 78.9301 61.5122 79.1824 61.6826 79.4021C61.853 79.6218 62.0635 79.8047 62.3023 79.9403C62.541 80.0759 62.8032 80.1615 63.074 80.1923C63.6208 80.2546 64.1692 80.0897 64.5984 79.734C75.3867 70.7902 80.7959 56.9918 79.0671 42.8232ZM39.5481 77.8574C39.3568 77.6552 39.1287 77.4941 38.8769 77.3834C38.6252 77.2727 38.3547 77.2146 38.0811 77.2125C37.8075 77.2103 37.5363 77.2641 37.2829 77.3708C37.0295 77.4775 36.799 77.635 36.6048 77.8341C36.4105 78.0333 36.2563 78.2702 36.151 78.5313C36.0457 78.7923 35.9914 79.0723 35.9912 79.3552C35.9911 79.638 36.045 79.9181 36.15 80.1793C36.255 80.4405 36.4089 80.6776 36.6029 80.877L39.9529 84.3684C32.65 84.3635 25.5287 82.0145 19.5726 77.6458C13.6164 73.2771 9.11939 67.1043 6.70252 59.9799C4.28564 52.8555 4.0682 45.131 6.08021 37.8733C8.09222 30.6157 12.2344 24.1829 17.9347 19.4635C18.3638 19.1075 18.6385 18.5899 18.6985 18.0245C18.7584 17.4591 18.5986 16.8922 18.2543 16.4486C17.9099 16.005 17.4092 15.721 16.8623 15.659C16.3154 15.5971 15.7671 15.7623 15.338 16.1183C4.55495 25.0629 -0.851172 38.8586 0.877688 53.0216C2.06416 62.7497 6.60484 71.709 13.6662 78.2549C20.7276 84.8008 29.8359 88.4941 39.319 88.6567L36.615 91.4298C36.4194 91.6276 36.2636 91.8634 36.1565 92.1237C36.0494 92.3839 35.9932 92.6635 35.9911 92.9464C35.989 93.2292 36.0411 93.5097 36.1443 93.7716C36.2475 94.0336 36.3998 94.2718 36.5925 94.4726C36.7851 94.6735 37.0143 94.8329 37.2668 94.9417C37.5193 95.0506 37.7902 95.1068 38.0638 95.1069C38.3373 95.1071 38.6083 95.0513 38.8609 94.9428C39.1136 94.8343 39.3429 94.6751 39.5358 94.4745L46.1055 87.737C46.299 87.5388 46.4527 87.3031 46.5581 87.0434C46.6634 86.7837 46.7181 86.5052 46.7193 86.2236C46.7204 85.942 46.6679 85.663 46.5647 85.4024C46.4615 85.1418 46.3096 84.9048 46.1178 84.7049L39.5481 77.8574Z" fill="#888888"/>
<path d="M41.6192 46.2276C41.3244 46.1108 41.0481 46.0031 40.8101 45.8947C40.5487 45.7753 40.2358 45.6513 39.8905 45.5158C37.9265 44.7446 36.8614 44.1353 36.8614 43.1266C36.8614 42.6811 37.3212 41.9896 38.1992 41.5299C38.8214 41.2048 41.0673 40.3143 43.9294 42.4889C44.1487 42.6578 44.3982 42.7802 44.6634 42.849C44.9287 42.9179 45.2044 42.9318 45.4749 42.89C45.7454 42.8482 46.0051 42.7516 46.2393 42.6056C46.4735 42.4596 46.6775 42.2672 46.8394 42.0394C47.0014 41.8116 47.1182 41.553 47.1831 41.2784C47.248 41.0037 47.2598 40.7186 47.2177 40.4392C47.1755 40.1599 47.0804 39.8919 46.9377 39.6507C46.7951 39.4096 46.6077 39.1999 46.3863 39.0339C45.0981 38.0409 43.6179 37.3468 42.0466 36.999V35.0577C42.0413 34.4926 41.8204 33.9525 41.432 33.5548C41.0436 33.1572 40.5191 32.9341 39.9725 32.9341C39.4258 32.9341 38.9013 33.1572 38.5129 33.5548C38.1245 33.9525 37.9036 34.4926 37.8984 35.0577V37.0999C37.3561 37.2455 36.8295 37.4476 36.3266 37.7029C34.0974 38.8689 32.7131 40.9471 32.7131 43.1264C32.7131 47.2852 36.5658 48.7981 38.4181 49.5252C38.6865 49.6299 38.9317 49.7252 39.1353 49.8183C39.432 49.9534 39.7732 50.0895 40.1388 50.234C42.1755 51.0381 43.084 51.569 43.084 52.586C43.084 53.0311 42.6241 53.723 41.7461 54.1818C41.1239 54.5064 38.879 55.3984 36.0159 53.2227C35.5727 52.8858 35.0182 52.7448 34.4744 52.8307C33.9307 52.9165 33.4421 53.2221 33.1163 53.6803C32.7905 54.1385 32.6541 54.7117 32.7371 55.2739C32.8202 55.836 33.1158 56.3411 33.559 56.6779C34.8465 57.6751 36.3266 58.3741 37.8987 58.7271V60.7888C37.904 61.3539 38.1249 61.894 38.5133 62.2917C38.9017 62.6893 39.4262 62.9124 39.9729 62.9124C40.5195 62.9124 41.044 62.6893 41.4324 62.2917C41.8208 61.894 42.0417 61.3539 42.047 60.7888V58.6208C42.5895 58.4723 43.1161 58.2672 43.6187 58.0089C45.8479 56.8429 47.2322 54.7653 47.2322 52.5864C47.2318 48.4447 43.5808 47.0024 41.6192 46.2276Z" fill="#888888"/>
<path d="M39.9727 24.335C35.4602 24.335 31.0491 25.7183 27.2971 28.3101C23.5451 30.9018 20.6208 34.5856 18.894 38.8955C17.1671 43.2054 16.7153 47.948 17.5956 52.5234C18.476 57.0988 20.6489 61.3016 23.8397 64.6002C27.0305 67.8989 31.0959 70.1453 35.5216 71.0555C39.9474 71.9656 44.5348 71.4985 48.7038 69.7132C52.8728 67.928 56.4361 64.9048 58.9431 61.026C61.4501 57.1471 62.7882 52.5868 62.7882 47.9218C62.7813 41.6684 60.3754 35.6731 56.0981 31.2512C51.8209 26.8293 46.0216 24.342 39.9727 24.335ZM39.9727 67.2202C36.2807 67.2202 32.6715 66.0884 29.6017 63.9678C26.5319 61.8473 24.1393 58.8333 22.7264 55.307C21.3135 51.7807 20.9439 47.9004 21.6641 44.1569C22.3844 40.4134 24.1623 36.9747 26.773 34.2758C29.3836 31.5769 32.7098 29.7389 36.3309 28.9942C39.952 28.2496 43.7054 28.6318 47.1164 30.0924C50.5274 31.5531 53.4428 34.0266 55.494 37.2002C57.5452 40.3738 58.64 44.1049 58.64 47.9218C58.6342 53.0382 56.6656 57.9434 53.1661 61.5613C49.6665 65.1791 44.9218 67.2142 39.9727 67.2202Z" fill="#888888"/>
</svg>
