<svg width="87" height="69" viewBox="0 0 87 69" fill="none" xmlns="http://www.w3.org/2000/svg">
<path d="M84.7425 7.98998C83.6361 6.66984 82.0867 5.86347 80.3793 5.71954L20.245 0.651394C18.5375 0.50746 16.8773 1.0433 15.5693 2.15992C14.2665 3.27216 13.4688 4.82816 13.3217 6.54307L12.1119 17.9998H7.28103C3.74459 17.9998 0.867432 20.9039 0.867432 24.4735V62.4689C0.867432 66.0385 3.74459 68.9426 7.28103 68.9426H67.6249C71.1615 68.9426 74.0386 66.0385 74.0386 62.4689V56.3054L76.1799 56.4858C76.3606 56.501 76.5402 56.5085 76.7183 56.5085C80.0153 56.5085 82.8259 53.9482 83.1051 50.5733L86.2374 12.7097C86.3798 10.9863 85.849 9.3103 84.7425 7.98998ZM7.28103 21.3667H67.6249C69.322 21.3667 70.703 22.7604 70.703 24.4735V27.9356H4.20307V24.4735C4.20307 22.7604 5.58386 21.3667 7.28103 21.3667ZM4.20307 31.3025H70.703V38.2869H4.20307V31.3025ZM67.6249 65.5757H7.28103C5.58386 65.5757 4.20307 64.182 4.20307 62.4689V41.6538H70.703V62.4689C70.703 64.182 69.322 65.5757 67.6249 65.5757ZM82.9133 12.4294L79.7809 50.293C79.6397 52.0001 78.1485 53.2737 76.4575 53.1306L74.0386 52.9267V24.4735C74.0386 20.9039 71.1615 17.9998 67.6249 17.9998H15.4665L16.6405 6.88245C16.6418 6.86966 16.643 6.85703 16.644 6.84407C16.7853 5.1369 18.2756 3.86355 19.9675 4.00664L80.102 9.07479C80.9214 9.14381 81.6651 9.53083 82.1959 10.1645C82.7268 10.7981 82.9816 11.6023 82.9133 12.4294Z" fill="#888888"/>
</svg>
