<svg width="95" height="69" viewBox="0 0 95 69" fill="none" xmlns="http://www.w3.org/2000/svg">
<path d="M88.981 0.0712891H28.2248C25.8156 0.0712891 25.8123 3.90932 28.2248 3.90932H88.981C90.0156 3.90932 90.8573 4.77019 90.8573 5.82834V51.1781C90.8573 52.2363 90.0156 53.0971 88.981 53.0971H56.1287C55.8453 53.0971 55.5655 53.1628 55.3104 53.2892C55.0553 53.4157 54.8315 53.5996 54.6558 53.8271L47.0877 63.6337L39.0608 53.7872C38.8847 53.5712 38.6643 53.3975 38.4153 53.2782C38.1663 53.159 37.8946 53.0972 37.6197 53.0971H5.64982C4.61524 53.0971 3.77354 52.2363 3.77354 51.1781V5.82834C3.77354 4.77019 4.61524 3.90932 5.64982 3.90932H12.7894C15.1986 3.90932 15.2019 0.0712891 12.7894 0.0712891H5.64982C2.54609 0.0712891 0.0209961 2.6539 0.0209961 5.82834V51.1781C0.0209961 54.3526 2.54609 56.9352 5.64982 56.9352H36.7414L45.6867 67.9081C46.4421 68.8348 47.8694 68.8158 48.6006 67.868L57.0382 56.9352H88.981C92.0847 56.9352 94.6098 54.3526 94.6098 51.1781V5.82834C94.6098 2.6539 92.0847 0.0712891 88.981 0.0712891Z" fill="#888888"/>
<path d="M10.4117 24.7623C10.3139 25.0699 10.2938 25.3978 10.3532 25.7155C10.4126 26.0332 10.5495 26.3304 10.7513 26.5794L14.4046 31.0904L14.0415 36.9365C13.7563 41.5163 20.479 36.6527 21.9294 36.6823C23.3923 36.7122 30.0992 41.4644 29.8172 36.9365L29.454 31.0904L33.1075 26.5794C33.9608 25.5261 33.4317 23.8375 32.1279 23.4963L26.5799 22.0432L23.5141 17.0956C22.7983 15.94 21.0648 15.9329 20.3445 17.0956L17.2787 22.0432L11.7307 23.4963C11.4243 23.5765 11.1427 23.7346 10.9121 23.9559C10.6815 24.1773 10.5094 24.4547 10.4117 24.7623ZM18.9305 25.5721C20.3177 25.209 21.2307 22.8346 21.9292 21.7072C22.6165 22.8164 23.554 25.2125 24.9279 25.5721L28.3288 26.4629L26.0891 29.2282C25.7842 29.6048 25.6313 30.0861 25.6617 30.574L25.8844 34.1578L22.621 32.8339C22.1765 32.6537 21.6816 32.6537 21.2372 32.8339L17.9738 34.1578L18.1963 30.574C18.2267 30.0861 18.0738 29.6048 17.7689 29.2282L15.5294 26.4629L18.9305 25.5721ZM58.6458 24.7623C58.5481 24.4547 58.3759 24.1773 58.1453 23.9559C57.9147 23.7346 57.6332 23.5764 57.3268 23.4961L51.7788 22.043L48.713 17.0954C47.9972 15.9398 46.2637 15.9327 45.5434 17.0954L42.4776 22.043L36.9296 23.4961C36.6233 23.5764 36.3417 23.7345 36.1111 23.9559C35.8805 24.1772 35.7083 24.4546 35.6106 24.7622C35.5129 25.0698 35.4928 25.3977 35.5522 25.7154C35.6115 26.0331 35.7485 26.3303 35.9502 26.5794L39.6037 31.0904L39.2404 36.9365C38.9551 41.5161 45.6781 36.6527 47.1283 36.6823C48.5912 36.7122 55.2982 41.4644 55.0162 36.9365L54.6529 31.0904L58.3064 26.5794C58.5081 26.3303 58.645 26.0331 58.7044 25.7155C58.7637 25.3978 58.7436 25.0699 58.6458 24.7623ZM51.2882 29.2282C50.9833 29.6048 50.8304 30.0861 50.8608 30.574L51.0835 34.1578C49.9118 33.6825 48.4156 32.6986 47.1283 32.6986C45.847 32.6986 44.3417 33.6836 43.1731 34.1578L43.3958 30.574C43.4262 30.0861 43.2733 29.6048 42.9684 29.2282L40.7287 26.4629L44.1296 25.5721C45.5168 25.209 46.4298 22.8346 47.1283 21.7072C47.8156 22.8164 48.7532 25.2125 50.127 25.5721L53.5279 26.4629L51.2882 29.2282ZM83.8447 24.7623C83.747 24.4547 83.5749 24.1773 83.3443 23.9559C83.1137 23.7345 82.8321 23.5764 82.5257 23.4961L76.9778 22.043L73.9119 17.0954C73.1961 15.9398 71.4626 15.9327 70.7423 17.0954L67.6765 22.043L62.1286 23.4961C60.8328 23.8354 60.2904 25.5193 61.1489 26.5792L64.8024 31.0903L64.4392 36.9363C64.154 41.5153 70.8735 36.6523 72.327 36.6821C73.7872 36.7118 80.4969 41.4654 80.2149 36.9363L79.8518 31.0903L83.5051 26.5792C83.7069 26.3302 83.8439 26.0331 83.9033 25.7154C83.9626 25.3977 83.9425 25.0699 83.8447 24.7623ZM76.4873 29.2282C76.1824 29.6048 76.0295 30.0861 76.0599 30.574L76.2824 34.1578L73.019 32.8339C72.5578 32.6537 72.0964 32.6537 71.6353 32.8339L68.3719 34.1578L68.5946 30.574C68.6249 30.0861 68.4721 29.6048 68.1672 29.2282L65.9274 26.4629L69.3284 25.5721C70.7155 25.209 71.6285 22.8346 72.327 21.7072C73.0143 22.8164 73.9519 25.2125 75.3257 25.5721L78.7266 26.4629L76.4873 29.2282ZM19.5079 3.5848C20.9201 4.57463 22.8056 3.13633 22.3551 1.47907C22.1406 0.689967 21.4414 0.115222 20.6404 0.0745384C19.8413 0.0340471 19.0859 0.538172 18.7988 1.30079C18.4896 2.1229 18.7825 3.09987 19.5079 3.5848Z" fill="#888888"/>
</svg>
