<svg width="75" height="73" viewBox="0 0 75 73" fill="none" xmlns="http://www.w3.org/2000/svg">
<path d="M58.1206 53.1844L55.5081 50.5719C54.951 50.0149 54.951 49.1101 55.5081 48.5531C56.0652 47.996 56.9699 47.996 57.527 48.5531L61.1488 52.1748C61.2813 52.3074 61.3865 52.4647 61.4583 52.6379C61.53 52.8112 61.567 52.9968 61.567 53.1843C61.567 53.3717 61.53 53.5574 61.4583 53.7306C61.3865 53.9038 61.2813 54.0612 61.1488 54.1937L56.0719 59.2704C55.9393 59.4029 55.782 59.5081 55.6088 59.5799C55.4356 59.6516 55.25 59.6885 55.0625 59.6885C54.8751 59.6885 54.6895 59.6516 54.5163 59.5799C54.3431 59.5081 54.1858 59.4029 54.0532 59.2704L50.4312 55.6486C50.1637 55.3808 50.0134 55.0177 50.0134 54.6391C50.0134 54.2606 50.1637 53.8975 50.4312 53.6297C50.699 53.3622 51.0621 53.2119 51.4406 53.2119C51.8192 53.2119 52.1823 53.3622 52.4501 53.6297L55.0625 56.2422L58.1206 53.1844Z" fill="#888888"/>
<path d="M72.3232 69.4649C75.1107 66.6774 75.1107 62.1581 72.3232 59.3707L63.1376 50.1851C62.8699 49.9174 62.5068 49.7671 62.1282 49.7671C61.7496 49.7671 61.3865 49.9174 61.1188 50.1851L52.064 59.2401C51.9314 59.3727 51.8262 59.5301 51.7544 59.7033C51.6827 59.8765 51.6458 60.0621 51.6458 60.2496C51.6458 60.4371 51.6827 60.6227 51.7544 60.7959C51.8262 60.9691 51.9314 61.1265 52.064 61.259L61.2495 70.4446C64.037 73.2321 68.5563 73.2321 71.3435 70.4446L72.3232 69.4649ZM62.1283 53.2133L55.0922 60.2495L63.2684 68.4257C64.9407 70.0983 67.6523 70.0983 69.3248 68.4257L70.3044 67.446C71.9769 65.7737 71.9769 63.0621 70.3044 61.3896L62.1283 53.2133Z" fill="#888888"/>
<path d="M31.8122 0.179688C14.4791 0.179688 0.406738 14.252 0.406738 31.5851C0.406738 48.9185 14.4791 62.9908 31.8122 62.9908C49.1453 62.9908 63.2176 48.9185 63.2176 31.5851C63.2176 14.252 49.1453 0.179688 31.8122 0.179688ZM31.8122 3.0347C47.5696 3.0347 60.3626 15.8277 60.3626 31.5851C60.3626 47.3426 47.5696 60.1355 31.8122 60.1355C16.0547 60.1355 3.26175 47.3426 3.26175 31.5851C3.26175 15.8277 16.0547 3.0347 31.8122 3.0347Z" fill="#888888"/>
<path d="M18.2959 39.2605C19.166 38.0171 20.1414 36.7721 20.8166 36.2038C21.2321 35.854 21.8982 35.5187 22.6449 35.2551C24.0617 34.7548 25.7792 34.4611 25.7792 34.4611C26.0404 34.4167 26.3089 34.4459 26.5545 34.5454C26.8001 34.6448 27.0131 34.8107 27.1698 35.0243C27.1698 35.0243 28.8441 37.2961 31.7428 37.2961C34.6341 37.2961 36.2819 35.0321 36.2819 35.0321C36.4385 34.8154 36.6528 34.6471 36.9003 34.5463C37.1479 34.4455 37.4187 34.4163 37.6821 34.4619C37.6821 34.4619 39.3911 34.7589 40.8069 35.2584C41.5487 35.52 42.2127 35.8507 42.6297 36.195C43.3258 36.7691 44.3511 38.0356 45.2499 39.3047C45.6509 39.8047 45.9334 40.3892 46.0761 41.014C46.2188 41.6389 46.2181 42.288 46.0739 42.9126C45.9272 43.5482 45.6359 44.1415 45.2228 44.6464C44.8097 45.1513 44.2858 45.5542 43.6917 45.8239C40.8205 47.1202 36.3644 48.7161 32.0011 48.7161C27.584 48.7161 22.926 47.076 19.9417 45.7861C19.3474 45.525 18.8205 45.1315 18.4013 44.6358C17.9822 44.1401 17.6817 43.5552 17.523 42.9258C17.3642 42.2963 17.3513 41.6389 17.4853 41.0037C17.6192 40.3685 17.8965 39.7722 18.2959 39.2605ZM25.4996 37.4266C25.03 37.5271 24.5644 37.6456 24.1039 37.782C23.5388 37.9518 22.9599 38.1317 22.6552 38.3881C22.1004 38.855 21.327 39.9067 20.6134 40.9276C20.5956 40.9532 20.5769 40.9781 20.5574 41.0024C20.4224 41.1709 20.3279 41.3683 20.2814 41.5792C20.2348 41.79 20.2374 42.0088 20.2889 42.2185C20.3397 42.4271 20.4376 42.6212 20.5752 42.786C20.7127 42.9507 20.8862 43.0818 21.0823 43.169C23.7814 44.3356 27.9959 45.8611 32.0011 45.8611C35.9291 45.8611 39.932 44.3888 42.5133 43.2232C42.7076 43.135 42.8789 43.0032 43.0139 42.8381C43.149 42.6729 43.2442 42.4789 43.2922 42.271C43.3401 42.0631 43.3395 41.847 43.2905 41.6394C43.2414 41.4318 43.1452 41.2382 43.0093 41.0738C42.9862 41.0461 42.9643 41.0174 42.9435 40.988C42.205 39.9424 41.3861 38.8702 40.8126 38.3971C40.5016 38.1404 39.9176 37.9567 39.3474 37.7851C38.8898 37.6491 38.4272 37.5305 37.9606 37.4294C36.9644 38.4405 34.823 40.1511 31.7428 40.1511C28.6591 40.1511 26.5005 38.4341 25.4996 37.4266Z" fill="#888888"/>
<path d="M36.8416 30.3889C36.3545 31.0791 35.8009 31.6924 35.2325 32.2029L36.8416 30.3889ZM36.8416 30.3889C36.3699 31.0649 35.8252 31.6824 35.2382 32.2096L36.8416 30.3889ZM24.312 25.4208L24.3119 25.3992L24.3112 25.3776C24.309 25.309 24.3066 25.1861 24.309 25.0191C24.3091 25.0542 24.3094 25.0876 24.3098 25.1194C24.3112 25.234 24.3144 25.3268 24.3176 25.3939C24.3187 25.4177 24.3197 25.4383 24.3207 25.4556C24.324 25.92 24.3748 26.3772 24.4656 26.8237C24.3665 26.3559 24.313 25.8859 24.312 25.4208ZM27.0687 18.2732C26.19 18.974 25.5965 19.8435 25.1952 20.705C25.2027 20.6878 25.2104 20.6706 25.2181 20.6534C25.677 19.6314 26.3436 18.6941 27.3099 18.0098C28.2646 17.3337 29.6039 16.8387 31.5294 16.8387C33.457 16.8387 34.7833 17.3328 35.719 18.0027C36.6659 18.6806 37.3117 19.61 37.7503 20.6278C37.7744 20.6837 37.7978 20.7396 37.8205 20.7957C37.438 19.9065 36.8533 19.0009 35.9587 18.2749C34.8544 17.3787 33.3893 16.8473 31.5294 16.8473C29.6613 16.8473 28.1866 17.3815 27.0687 18.2732ZM38.5567 25.4082C38.5567 25.4367 38.5673 25.3446 38.5745 25.1604C38.5725 25.2521 38.5695 25.3234 38.567 25.3713L38.5652 25.4052L38.5651 25.4391C38.5627 25.9573 38.4982 26.4804 38.3807 26.999C38.4943 26.4813 38.5567 25.9492 38.5567 25.4082ZM27.167 25.4082V25.3543L27.1633 25.3053L27.1632 25.3044L27.1632 25.3042L27.1629 25.3003C27.1625 25.2938 27.1618 25.2809 27.1609 25.2622C27.1592 25.2248 27.157 25.1642 27.156 25.0837C27.1539 24.9222 27.1568 24.6839 27.1776 24.395C27.2197 23.8087 27.3326 23.0577 27.5999 22.3301C27.8665 21.6043 28.2647 20.9602 28.8436 20.4985C29.4036 20.0518 30.2339 19.6938 31.5294 19.6938C32.8182 19.6938 33.6281 20.0494 34.165 20.4851C34.7211 20.9364 35.0993 21.5682 35.3477 22.2881C35.8064 23.6179 35.7355 24.9256 35.7147 25.3102C35.7121 25.3572 35.7103 25.3904 35.7103 25.4082C35.7103 27.0778 34.6803 28.8729 33.3304 30.0853L33.3302 30.0855C32.465 30.8627 31.8272 31.1224 31.5294 31.1224C31.2121 31.1224 30.5373 30.8474 29.6346 30.0591L29.6346 30.0591C28.2319 28.8343 27.167 27.0489 27.167 25.4082Z" fill="#888888" stroke="#888888" stroke-width="2.84642"/>
<path d="M25.0651 25.2237C25.0419 24.5135 24.9884 17.5933 31.6584 17.5933C38.3314 17.5933 38.1522 24.4961 38.1132 25.2403C38.1026 27.5173 36.8097 29.7725 35.2142 31.2044C34.0585 32.2415 32.7439 32.83 31.6584 32.83C30.58 32.83 29.2467 32.245 28.0654 31.2144C26.4184 29.7776 25.07 27.5091 25.0651 25.2237ZM27.2436 25.2117C27.2436 25.2117 26.8305 19.7699 31.6584 19.7699C36.464 19.7699 35.9348 25.1804 35.9348 25.2117C35.9348 26.8896 34.934 28.5299 33.7584 29.5849C33.0619 30.21 32.3125 30.6533 31.6584 30.6533C30.9975 30.6533 30.2222 30.2065 29.4983 29.5749C28.2909 28.5215 27.2436 26.8869 27.2436 25.2117Z" fill="white"/>
</svg>
