<svg width="69" height="78" viewBox="0 0 69 78" fill="none" xmlns="http://www.w3.org/2000/svg">
<path fill-rule="evenodd" clip-rule="evenodd" d="M67.051 31.678H15.3257L65.0085 17.2856C65.3945 17.1734 65.7203 16.9128 65.9145 16.5608C66.0106 16.3864 66.0715 16.1948 66.0935 15.997C66.1155 15.7991 66.0983 15.5988 66.0429 15.4076L63.4431 6.43243C62.4042 2.84775 59.0665 0.34375 55.3259 0.34375C54.5378 0.34375 53.7524 0.455639 52.9909 0.675929L6.34402 14.189C4.1866 14.8136 2.39851 16.248 1.30828 18.2267C0.218501 20.2052 -0.0372662 22.4836 0.58752 24.6405L3.1276 33.4091V69.5309C3.12745 74.1833 6.91256 77.9683 11.5644 77.9683H29.7825C30.62 77.9683 31.2986 77.2895 31.2986 76.4522C31.2986 75.6149 30.62 74.9361 29.7825 74.9361H11.565C8.58436 74.9361 6.15981 72.5115 6.15981 69.5309V48.8988H65.5347V69.5309C65.5347 72.5115 63.1103 74.9361 60.1296 74.9361H41.9114C41.0745 74.9361 40.3953 75.6149 40.3953 76.4522C40.3953 77.2895 41.0745 77.9683 41.9114 77.9683H60.1296C64.7821 77.9683 68.5671 74.1833 68.5671 69.5309V33.1941C68.5671 32.3566 67.8883 31.678 67.051 31.678ZM40.3172 45.8666L46.7588 34.7102H55.1371L48.6959 45.8666H40.3172ZM28.437 45.8666L34.8788 34.7102H43.2569L36.8159 45.8666H28.437ZM16.5576 45.8666L22.9986 34.7102H31.3775L24.9359 45.8666H16.5576ZM22.1944 26.2396L11.4075 15.8791L19.4897 13.538C19.5479 13.6225 19.6145 13.7009 19.6886 13.7719L30.4755 24.1323L22.3933 26.4735C22.3352 26.389 22.2685 26.3106 22.1944 26.2396ZM42.5102 7.16091L53.2969 17.5212L45.2148 19.8622C45.1568 19.7775 45.09 19.6991 45.0157 19.6283L34.229 9.26784L42.311 6.92683C42.3692 7.0114 42.4359 7.08978 42.5101 7.16076L42.5102 7.16091ZM31.0991 10.4668L41.8859 20.8266L33.8038 23.1682C33.7458 23.0836 33.6791 23.0052 33.6048 22.9343L22.818 12.5739L30.9002 10.2328C30.9575 10.3152 31.0239 10.3939 31.0991 10.4668ZM53.8348 3.58852C54.3214 3.44752 54.8233 3.37596 55.326 3.37596C57.7251 3.37596 59.8648 4.97969 60.5305 7.27644L62.7087 14.7948L56.6261 16.5565C56.5675 16.4721 56.5006 16.3938 56.4264 16.3227L45.6401 5.96274L53.8348 3.58852ZM3.96434 19.6895C4.66326 18.4203 5.80792 17.5012 7.18788 17.1016L8.07859 16.8432C8.13699 16.9276 8.20368 17.006 8.27766 17.0771L19.0644 27.4376L5.6783 31.3155L3.50011 23.7971C3.10031 22.4179 3.26557 20.9593 3.96434 19.6895ZM6.15966 34.7102H19.4974L13.0563 45.8666H6.15981L6.15966 34.7102ZM52.1972 45.8666L58.6384 34.7102H65.5349V45.8666H52.1972Z" fill="#888888"/>
<path fill-rule="evenodd" clip-rule="evenodd" d="M46.3306 61.7627C46.3307 61.4966 46.2606 61.2351 46.1275 61.0046C45.9945 60.7742 45.8031 60.5828 45.5726 60.4498L32.2527 52.7596C32.0222 52.6266 31.7607 52.5566 31.4946 52.5566C31.2285 52.5566 30.9671 52.6266 30.7366 52.7596C30.5061 52.8926 30.3147 53.084 30.1816 53.3145C30.0485 53.545 29.9785 53.8064 29.9785 54.0726V69.4528C29.9786 69.7189 30.0486 69.9802 30.1817 70.2106C30.3148 70.441 30.5061 70.6322 30.7366 70.7652C30.967 70.8985 31.2284 70.9687 31.4946 70.9687C31.7608 70.9687 32.0223 70.8985 32.2527 70.7652L45.5726 63.0757C45.8031 62.9426 45.9945 62.7512 46.1275 62.5208C46.2606 62.2903 46.3307 62.0288 46.3306 61.7627ZM33.0107 66.8269V56.6985L41.7823 61.7626L33.0107 66.8269ZM35.8469 74.9357C35.012 74.9357 34.3308 75.6167 34.3308 76.4518C34.3308 77.2869 35.012 77.9679 35.8469 77.9679C36.6826 77.9679 37.363 77.2869 37.363 76.4518C37.363 75.6167 36.6826 74.9357 35.8469 74.9357Z" fill="#888888"/>
</svg>
